# xmcd CD database file
#
# Track frame offsets:
#	182
#	12000
#	25205
#	34657
#	48785
#	58045
#	69562
#	104220
#	115447
#	125192
#	136530
#	146772
#	161445
#	169732
#	178065
#	186940
#	197925
#	208277
#	224520
#	236052
#
# Disc length: 3332 seconds
#
# Revision: 0
# Processed by: cddbd v1.4PL0 Copyright (c) Steve Scherf et al.
# Submitted via: Feurio! 1.65 - http://www.feurio.com
#
DISCID=360d0214
DTITLE=Duffy Power - Blues Power
DYEAR=1900
DGENRE=Blues
TTITLE0=Hell Hound
TTITLE1=Mary Open The Door
TTITLE2=Holiday
TTITLE3=Little Boy Blue
TTITLE4=I Need You
TTITLE5=Midnight Special
TTITLE6=Gin House Blues
TTITLE7=Fox And Geese
TTITLE8=Exactly Like You
TTITLE9=Fixing A Hole
TTITLE10=Roll Over Beethoven
TTITLE11=I've Been Lonely Baby
TTITLE12=Lawdy Miss Clawdy
TTITLE13=Lily
TTITLE14=Little Man (You've Had A Busy Day)
TTITLE15=City Women
TTITLE16=Halfway
TTITLE17=Louisiana Blues
TTITLE18=One Night
TTITLE19=Leaving Blues
EXTD=ARD See For Miles Records SEECD 365
EXTT0=
EXTT1=
EXTT2=
EXTT3=
EXTT4=
EXTT5=
EXTT6=
EXTT7=
EXTT8=
EXTT9=
EXTT10=
EXTT11=
EXTT12=
EXTT13=
EXTT14=
EXTT15=
EXTT16=
EXTT17=
EXTT18=
EXTT19=
PLAYORDER=
